<?xml version="1.0" standalone="no"?>
<!DOCTYPE svg PUBLIC "-//W3C//DTD SVG 20010904//EN"
 "http://www.w3.org/TR/2001/REC-SVG-20010904/DTD/svg10.dtd">
<svg version="1.0" xmlns="http://www.w3.org/2000/svg"
 width="571.000000pt" height="571.000000pt" viewBox="0 0 571.000000 571.000000"
 preserveAspectRatio="xMidYMid meet">
<metadata>
Created by potrace 1.14, written by Peter Selinger 2001-2017
</metadata>
<g transform="translate(0.000000,571.000000) scale(0.100000,-0.100000)"
fill="#000000" stroke="none">
<path d="M0 2855 l0 -2855 2855 0 2855 0 0 2855 0 2855 -2855 0 -2855 0 0
-2855z m3948 1542 l3 -107 32 23 c65 49 141 40 179 -21 21 -34 23 -48 23 -177
0 -133 -1 -140 -20 -140 -19 0 -20 8 -25 143 -5 136 -6 145 -29 163 -35 29
-85 25 -123 -10 l-33 -29 -5 -134 c-4 -116 -7 -133 -22 -136 -17 -3 -18 15
-18 268 0 253 1 271 18 268 15 -3 17 -18 20 -111z m-821 63 c58 -35 69 -139
20 -191 l-23 -24 35 -31 c32 -28 35 -36 39 -97 4 -67 4 -67 -36 -107 l-40 -40
-131 0 -131 0 0 255 0 255 118 0 c98 0 122 -3 149 -20z m361 -32 c3 -24 0 -28
-21 -28 -27 0 -40 20 -30 46 10 26 48 13 51 -18z m822 -37 l0 -50 42 -3 c31
-2 44 -8 46 -20 3 -13 -6 -17 -40 -20 l-43 -3 -3 -120 c-4 -152 -1 -165 39
-165 24 0 30 -4 27 -17 -5 -26 -69 -30 -91 -6 -13 16 -17 45 -19 163 l-3 145
-32 3 c-25 2 -33 8 -33 23 0 15 7 19 35 19 l35 0 0 50 c0 43 3 50 20 50 17 0
20 -7 20 -49z m-885 -66 c0 -16 -6 -19 -28 -17 -34 4 -70 -17 -94 -55 -14 -21
-19 -56 -23 -152 -5 -118 -6 -126 -25 -126 -19 0 -20 7 -20 180 0 173 1 180
20 180 14 0 21 -9 25 -30 6 -30 6 -30 18 -8 28 50 127 72 127 28z m55 -165 c0
-183 -1 -190 -20 -190 -19 0 -20 7 -20 183 0 101 3 187 7 190 3 4 12 7 20 7
10 0 13 -38 13 -190z m263 179 c12 -6 32 -21 45 -32 l22 -20 0 22 c0 26 28 40
41 20 6 -8 8 -95 7 -199 -3 -175 -4 -187 -27 -227 -29 -51 -87 -83 -149 -83
-65 0 -135 41 -117 69 2 4 31 -1 65 -12 54 -18 64 -18 97 -6 49 19 83 69 83
123 0 40 0 40 -16 17 -39 -54 -128 -66 -192 -24 -114 74 -108 288 9 346 39 19
101 22 132 6z m890 -3 c83 -35 128 -151 96 -247 -64 -189 -304 -163 -334 37
-22 148 110 265 238 210z m376 -2 c41 -29 51 -72 51 -224 0 -133 -1 -140 -20
-140 -19 0 -20 7 -20 128 0 101 -4 134 -18 161 -20 41 -61 56 -108 40 -62 -20
-68 -37 -74 -188 -5 -128 -6 -136 -25 -136 -19 0 -20 7 -22 170 -2 94 1 176 6
184 13 20 41 6 41 -21 0 -22 0 -22 28 4 15 14 34 28 42 31 31 11 96 6 119 -9z
m-3982 -199 c80 -53 58 -189 -35 -214 -105 -30 -195 75 -144 169 35 66 116 86
179 45z m3239 -386 c98 -17 205 -56 290 -107 107 -64 164 -112 235 -200 l59
-73 0 130 c0 139 8 171 47 196 34 23 99 22 132 -2 53 -40 52 -26 49 -993 l-4
-895 -26 -95 c-72 -265 -214 -440 -444 -553 -235 -115 -540 -131 -829 -43
-164 50 -233 92 -279 170 -32 55 -33 77 -3 112 24 28 74 36 100 17 34 -26 223
-93 337 -120 115 -28 339 -25 445 5 107 31 187 75 262 145 156 146 219 332
211 622 l-3 110 -29 -50 c-43 -72 -169 -193 -255 -243 -280 -164 -653 -152
-918 30 -218 149 -363 384 -408 659 -80 495 149 953 564 1127 127 54 329 76
467 51z m-3256 -54 c63 -33 60 28 60 -1117 0 -1005 -1 -1046 -20 -1111 -56
-199 -227 -352 -439 -393 -123 -24 -180 4 -189 94 -6 66 27 106 106 128 138
38 232 109 280 212 l27 57 5 1035 c5 1134 1 1063 65 1095 39 19 69 19 105 0z
m712 -24 l33 -29 5 -634 c5 -614 6 -635 27 -689 42 -112 94 -181 179 -240 145
-100 424 -115 601 -34 154 70 251 218 267 405 3 36 5 316 5 624 l1 558 34 34
c27 27 42 34 75 34 54 0 86 -16 106 -54 15 -28 16 -89 13 -661 -4 -609 -5
-632 -26 -705 -75 -261 -258 -427 -536 -486 -86 -18 -305 -21 -396 -4 -151 27
-274 87 -377 183 -76 71 -130 160 -169 277 l-29 85 -3 635 c-2 349 0 646 3
658 18 74 125 98 187 43z"/>
<path d="M2900 4345 l0 -85 94 0 c90 0 96 1 115 26 28 35 28 97 1 124 -17 17
-33 20 -115 20 l-95 0 0 -85z"/>
<path d="M2902 4113 l3 -98 82 -3 c107 -4 148 12 162 63 27 98 -17 135 -157
135 l-93 0 3 -97z"/>
<path d="M3655 4303 c-74 -18 -116 -132 -81 -217 42 -101 169 -109 219 -13 36
70 18 177 -36 211 -26 17 -74 26 -102 19z"/>
<path d="M4540 4304 c-43 -16 -64 -32 -81 -66 -42 -83 -12 -193 63 -223 48
-19 52 -19 94 1 48 23 76 72 76 137 1 59 -20 109 -55 132 -27 17 -75 27 -97
19z"/>
<path d="M3972 3520 c-317 -83 -524 -382 -524 -755 0 -435 273 -756 666 -782
298 -19 568 153 682 435 42 104 56 174 61 307 8 210 -28 358 -127 508 -91 141
-238 247 -396 287 -102 26 -261 26 -362 0z"/>
</g>
</svg>
